<?xml version="1.0" standalone="no"?><!DOCTYPE svg PUBLIC "-//W3C//DTD SVG 1.1//EN" "http://www.w3.org/Graphics/SVG/1.1/DTD/svg11.dtd"><svg t="1610976453734" class="icon" viewBox="0 0 1024 1024" version="1.1" xmlns="http://www.w3.org/2000/svg" p-id="3003" xmlns:xlink="http://www.w3.org/1999/xlink" width="128" height="128"><defs><style type="text/css"></style></defs><path d="M45.06004543 469.53914469l183.9538884-183.95388839 183.95388839 183.95388839c23.43114272 23.43114272 23.43114272 61.4905679 0 84.92171062L229.01393383 738.4147437 45.06004543 554.46085531c-23.43114272-23.43114272-23.43114272-61.4905679 0-84.92171062z" fill="#e6e603" p-id="3004"></path><path d="M285.5852563 794.98606617l183.95388839-183.95388839c23.43114272-23.43114272 61.4905679-23.43114272 84.92171062 0l183.95388839 183.95388839-183.95388839 183.9538884c-23.43114272 23.43114272-61.4905679 23.43114272-84.92171062 0L285.5852563 794.98606617z" fill="#f9592d" p-id="3005"></path><path d="M285.5852563 229.01393383l183.95388839-183.9538884c23.43114272-23.43114272 61.4905679-23.43114272 84.92171062 0l183.95388839 183.9538884-183.95388839 183.95388839c-23.43114272 23.43114272-61.4905679 23.43114272-84.92171062 0L285.5852563 229.01393383z" fill="#6ce11b" p-id="3006"></path><path d="M611.03217778 469.53914469l183.95388839-183.95388839 183.9538884 183.95388839c23.43114272 23.43114272 23.43114272 61.4905679 0 84.92171062L794.98606617 738.4147437 611.03217778 554.46085531c-23.43114272-23.43114272-23.43114272-61.4905679 0-84.92171062z" fill="#1be1db" p-id="3007"></path></svg>